{
	"asset":{
		"generator":"Khronos glTF Blender I/O v4.2.57",
		"version":"2.0"
	},
	"scene":0,
	"scenes":[
		{
			"name":"Scene",
			"nodes":[
				0,
				1,
				2,
				3,
				4,
				5,
				6,
				7,
				8
			]
		}
	],
	"nodes":[
		{
			"mesh":0,
			"name":"petal1",
			"translation":[
				0,
				0.44465452432632446,
				0.10469555854797363
			]
		},
		{
			"mesh":1,
			"name":"petal2",
			"rotation":[
				0.06858961284160614,
				-0.7523512244224548,
				0.21251240372657776,
				0.6197593212127686
			],
			"translation":[
				1.4228101968765259,
				3.6879210472106934,
				1.8514293432235718
			]
		},
		{
			"mesh":2,
			"name":"petal3",
			"rotation":[
				-0.1157367005944252,
				-0.0023481089156121016,
				-0.00831221416592598,
				0.9932424426078796
			],
			"translation":[
				-3.362499713897705,
				0.6292034387588501,
				-4.933666229248047
			]
		},
		{
			"mesh":3,
			"name":"petal4",
			"rotation":[
				-0.028848549351096153,
				-0.13286487758159637,
				-0.1603333204984665,
				0.9776543974876404
			],
			"translation":[
				3.088679075241089,
				3.1427204608917236,
				-6.392230033874512
			]
		},
		{
			"mesh":4,
			"name":"petal5",
			"rotation":[
				0.07094331830739975,
				-0.00961446575820446,
				-0.006280352361500263,
				0.9974142909049988
			],
			"translation":[
				-0.48876795172691345,
				1.6083948612213135,
				-7.953181743621826
			]
		},
		{
			"mesh":5,
			"name":"petal6",
			"translation":[
				-2.727712869644165,
				1.7081449031829834,
				1.8757877349853516
			]
		},
		{
			"mesh":6,
			"name":"petal7",
			"rotation":[
				0.049261897802352905,
				-0.0014124063309282064,
				0.0021577002480626106,
				0.9987825751304626
			],
			"translation":[
				1.1157622337341309,
				0.2514083981513977,
				-4.334856033325195
			]
		},
		{
			"mesh":7,
			"name":"petal8",
			"rotation":[
				0.39094892144203186,
				-0.056135162711143494,
				0.1873064488172531,
				0.8994020819664001
			],
			"translation":[
				4.490194797515869,
				6.530706405639648,
				-8.19076919555664
			]
		},
		{
			"mesh":8,
			"name":"Plane",
			"scale":[
				26.02797508239746,
				26.02797508239746,
				26.02797508239746
			]
		}
	],
	"materials":[
		{
			"doubleSided":true,
			"name":"Material.001",
			"pbrMetallicRoughness":{
				"baseColorFactor":[
					0.5870108008384705,
					0.010019089095294476,
					0.010019089095294476,
					1
				],
				"metallicFactor":0,
				"roughnessFactor":0.6627907156944275
			}
		},
		{
			"doubleSided":true,
			"name":"Material.003",
			"pbrMetallicRoughness":{
				"baseColorFactor":[
					0.800000011920929,
					0.800000011920929,
					0.800000011920929,
					1
				],
				"metallicFactor":0,
				"roughnessFactor":0.6860464811325073
			}
		}
	],
	"meshes":[
		{
			"name":"Plane.008",
			"primitives":[
				{
					"attributes":{
						"POSITION":0,
						"NORMAL":1,
						"TEXCOORD_0":2
					},
					"indices":3,
					"material":0
				}
			]
		},
		{
			"name":"Plane.002",
			"primitives":[
				{
					"attributes":{
						"POSITION":4,
						"NORMAL":5,
						"TEXCOORD_0":6
					},
					"indices":7,
					"material":0
				}
			]
		},
		{
			"name":"Plane.011",
			"primitives":[
				{
					"attributes":{
						"POSITION":8,
						"NORMAL":9,
						"TEXCOORD_0":10
					},
					"indices":11,
					"material":0
				}
			]
		},
		{
			"name":"Plane.004",
			"primitives":[
				{
					"attributes":{
						"POSITION":12,
						"NORMAL":13,
						"TEXCOORD_0":14
					},
					"indices":7,
					"material":0
				}
			]
		},
		{
			"name":"Plane.012",
			"primitives":[
				{
					"attributes":{
						"POSITION":15,
						"NORMAL":16,
						"TEXCOORD_0":17
					},
					"indices":18,
					"material":0
				}
			]
		},
		{
			"name":"Plane.006",
			"primitives":[
				{
					"attributes":{
						"POSITION":19,
						"NORMAL":20,
						"TEXCOORD_0":21
					},
					"indices":22,
					"material":0
				}
			]
		},
		{
			"name":"Plane.007",
			"primitives":[
				{
					"attributes":{
						"POSITION":23,
						"NORMAL":24,
						"TEXCOORD_0":25
					},
					"indices":26,
					"material":0
				}
			]
		},
		{
			"name":"Plane.009",
			"primitives":[
				{
					"attributes":{
						"POSITION":27,
						"NORMAL":28,
						"TEXCOORD_0":29
					},
					"indices":26,
					"material":0
				}
			]
		},
		{
			"name":"Plane.013",
			"primitives":[
				{
					"attributes":{
						"POSITION":30,
						"NORMAL":31,
						"TEXCOORD_0":32
					},
					"indices":33,
					"material":1
				}
			]
		}
	],
	"accessors":[
		{
			"bufferView":0,
			"componentType":5126,
			"count":2712,
			"max":[
				0.7605357766151428,
				0.03075546585023403,
				0.9384685754776001
			],
			"min":[
				-0.9010347723960876,
				-0.17936240136623383,
				-0.8701977133750916
			],
			"type":"VEC3"
		},
		{
			"bufferView":1,
			"componentType":5126,
			"count":2712,
			"type":"VEC3"
		},
		{
			"bufferView":2,
			"componentType":5126,
			"count":2712,
			"type":"VEC2"
		},
		{
			"bufferView":3,
			"componentType":5123,
			"count":15360,
			"type":"SCALAR"
		},
		{
			"bufferView":4,
			"componentType":5126,
			"count":2712,
			"max":[
				0.7264984846115112,
				0.02638285979628563,
				0.9400428533554077
			],
			"min":[
				-0.8387265205383301,
				-0.1559416651725769,
				-1.0151078701019287
			],
			"type":"VEC3"
		},
		{
			"bufferView":5,
			"componentType":5126,
			"count":2712,
			"type":"VEC3"
		},
		{
			"bufferView":6,
			"componentType":5126,
			"count":2712,
			"type":"VEC2"
		},
		{
			"bufferView":7,
			"componentType":5123,
			"count":15360,
			"type":"SCALAR"
		},
		{
			"bufferView":8,
			"componentType":5126,
			"count":2711,
			"max":[
				0.7839487791061401,
				0.12679092586040497,
				0.9469442963600159
			],
			"min":[
				-0.8719775080680847,
				-0.22991943359375,
				-0.9198710322380066
			],
			"type":"VEC3"
		},
		{
			"bufferView":9,
			"componentType":5126,
			"count":2711,
			"type":"VEC3"
		},
		{
			"bufferView":10,
			"componentType":5126,
			"count":2711,
			"type":"VEC2"
		},
		{
			"bufferView":11,
			"componentType":5123,
			"count":15360,
			"type":"SCALAR"
		},
		{
			"bufferView":12,
			"componentType":5126,
			"count":2712,
			"max":[
				0.7885358333587646,
				0.08079994469881058,
				0.928273618221283
			],
			"min":[
				-0.9009636044502258,
				-0.22998417913913727,
				-0.9015256762504578
			],
			"type":"VEC3"
		},
		{
			"bufferView":13,
			"componentType":5126,
			"count":2712,
			"type":"VEC3"
		},
		{
			"bufferView":14,
			"componentType":5126,
			"count":2712,
			"type":"VEC2"
		},
		{
			"bufferView":15,
			"componentType":5126,
			"count":1109,
			"max":[
				0.7946884632110596,
				0.0032320008613169193,
				0.9577082395553589
			],
			"min":[
				-0.9080539345741272,
				-0.35775986313819885,
				-0.9979265928268433
			],
			"type":"VEC3"
		},
		{
			"bufferView":16,
			"componentType":5126,
			"count":1109,
			"type":"VEC3"
		},
		{
			"bufferView":17,
			"componentType":5126,
			"count":1109,
			"type":"VEC2"
		},
		{
			"bufferView":18,
			"componentType":5123,
			"count":6144,
			"type":"SCALAR"
		},
		{
			"bufferView":19,
			"componentType":5126,
			"count":1109,
			"max":[
				0.7171733975410461,
				-0.7908767461776733,
				0.6830456256866455
			],
			"min":[
				-1.1604135036468506,
				-1.3028315305709839,
				-1.1251380443572998
			],
			"type":"VEC3"
		},
		{
			"bufferView":20,
			"componentType":5126,
			"count":1109,
			"type":"VEC3"
		},
		{
			"bufferView":21,
			"componentType":5126,
			"count":1109,
			"type":"VEC2"
		},
		{
			"bufferView":22,
			"componentType":5123,
			"count":6144,
			"type":"SCALAR"
		},
		{
			"bufferView":23,
			"componentType":5126,
			"count":3193,
			"max":[
				0.771479070186615,
				0.07120396941900253,
				0.9037068486213684
			],
			"min":[
				-0.938777506351471,
				-0.19404436647891998,
				-0.9712637066841125
			],
			"type":"VEC3"
		},
		{
			"bufferView":24,
			"componentType":5126,
			"count":3193,
			"type":"VEC3"
		},
		{
			"bufferView":25,
			"componentType":5126,
			"count":3193,
			"type":"VEC2"
		},
		{
			"bufferView":26,
			"componentType":5123,
			"count":17472,
			"type":"SCALAR"
		},
		{
			"bufferView":27,
			"componentType":5126,
			"count":3193,
			"max":[
				0.771479070186615,
				0.07120396941900253,
				0.9037068486213684
			],
			"min":[
				-0.938777506351471,
				-0.19404436647891998,
				-0.9712637066841125
			],
			"type":"VEC3"
		},
		{
			"bufferView":28,
			"componentType":5126,
			"count":3193,
			"type":"VEC3"
		},
		{
			"bufferView":29,
			"componentType":5126,
			"count":3193,
			"type":"VEC2"
		},
		{
			"bufferView":30,
			"componentType":5126,
			"count":123,
			"max":[
				1,
				0.8064842820167542,
				1
			],
			"min":[
				-1,
				0,
				-1
			],
			"type":"VEC3"
		},
		{
			"bufferView":31,
			"componentType":5126,
			"count":123,
			"type":"VEC3"
		},
		{
			"bufferView":32,
			"componentType":5126,
			"count":123,
			"type":"VEC2"
		},
		{
			"bufferView":33,
			"componentType":5123,
			"count":414,
			"type":"SCALAR"
		}
	],
	"bufferViews":[
		{
			"buffer":0,
			"byteLength":32544,
			"byteOffset":0,
			"target":34962
		},
		{
			"buffer":0,
			"byteLength":32544,
			"byteOffset":32544,
			"target":34962
		},
		{
			"buffer":0,
			"byteLength":21696,
			"byteOffset":65088,
			"target":34962
		},
		{
			"buffer":0,
			"byteLength":30720,
			"byteOffset":86784,
			"target":34963
		},
		{
			"buffer":0,
			"byteLength":32544,
			"byteOffset":117504,
			"target":34962
		},
		{
			"buffer":0,
			"byteLength":32544,
			"byteOffset":150048,
			"target":34962
		},
		{
			"buffer":0,
			"byteLength":21696,
			"byteOffset":182592,
			"target":34962
		},
		{
			"buffer":0,
			"byteLength":30720,
			"byteOffset":204288,
			"target":34963
		},
		{
			"buffer":0,
			"byteLength":32532,
			"byteOffset":235008,
			"target":34962
		},
		{
			"buffer":0,
			"byteLength":32532,
			"byteOffset":267540,
			"target":34962
		},
		{
			"buffer":0,
			"byteLength":21688,
			"byteOffset":300072,
			"target":34962
		},
		{
			"buffer":0,
			"byteLength":30720,
			"byteOffset":321760,
			"target":34963
		},
		{
			"buffer":0,
			"byteLength":32544,
			"byteOffset":352480,
			"target":34962
		},
		{
			"buffer":0,
			"byteLength":32544,
			"byteOffset":385024,
			"target":34962
		},
		{
			"buffer":0,
			"byteLength":21696,
			"byteOffset":417568,
			"target":34962
		},
		{
			"buffer":0,
			"byteLength":13308,
			"byteOffset":439264,
			"target":34962
		},
		{
			"buffer":0,
			"byteLength":13308,
			"byteOffset":452572,
			"target":34962
		},
		{
			"buffer":0,
			"byteLength":8872,
			"byteOffset":465880,
			"target":34962
		},
		{
			"buffer":0,
			"byteLength":12288,
			"byteOffset":474752,
			"target":34963
		},
		{
			"buffer":0,
			"byteLength":13308,
			"byteOffset":487040,
			"target":34962
		},
		{
			"buffer":0,
			"byteLength":13308,
			"byteOffset":500348,
			"target":34962
		},
		{
			"buffer":0,
			"byteLength":8872,
			"byteOffset":513656,
			"target":34962
		},
		{
			"buffer":0,
			"byteLength":12288,
			"byteOffset":522528,
			"target":34963
		},
		{
			"buffer":0,
			"byteLength":38316,
			"byteOffset":534816,
			"target":34962
		},
		{
			"buffer":0,
			"byteLength":38316,
			"byteOffset":573132,
			"target":34962
		},
		{
			"buffer":0,
			"byteLength":25544,
			"byteOffset":611448,
			"target":34962
		},
		{
			"buffer":0,
			"byteLength":34944,
			"byteOffset":636992,
			"target":34963
		},
		{
			"buffer":0,
			"byteLength":38316,
			"byteOffset":671936,
			"target":34962
		},
		{
			"buffer":0,
			"byteLength":38316,
			"byteOffset":710252,
			"target":34962
		},
		{
			"buffer":0,
			"byteLength":25544,
			"byteOffset":748568,
			"target":34962
		},
		{
			"buffer":0,
			"byteLength":1476,
			"byteOffset":774112,
			"target":34962
		},
		{
			"buffer":0,
			"byteLength":1476,
			"byteOffset":775588,
			"target":34962
		},
		{
			"buffer":0,
			"byteLength":984,
			"byteOffset":777064,
			"target":34962
		},
		{
			"buffer":0,
			"byteLength":828,
			"byteOffset":778048,
			"target":34963
		}
	],
	"buffers":[
		{
			"byteLength":778876,
			"uri":"petal.bin"
		}
	]
}
