{
    "asset": {
        "generator": "Khronos glTF Blender I/O v4.2.57",
        "version": "2.0"
    },
    "extensionsUsed": ["KHR_materials_specular"],
    "scene": 0,
    "scenes": [
        {
            "name": "Scene",
            "nodes": [0, 1, 2]
        }
    ],
    "nodes": [
        {
            "mesh": 0,
            "name": "Cube",
            "scale": [5.183060169219971, 6.62649393081665, 5.183060169219971],
            "translation": [
                5.134584426879883, 67.77963256835938, 50.91947555541992
            ]
        },
        {
            "mesh": 1,
            "name": "lale 5.001",
            "rotation": [
                0.2619548738002777, 0.6705344319343567, 0.10056418180465698,
                0.6867678165435791
            ],
            "scale": [
                0.32172346115112305, 0.32172349095344543, 0.3217235207557678
            ],
            "translation": [5.521877765655518, 73.984375, 55.56699752807617]
        },
        {
            "mesh": 2,
            "name": "Cube.001",
            "scale": [138.92523193359375, 48.30228805541992, 48.30228805541992],
            "translation": [
                1.7303886413574219, 108.6173095703125, 43.46244430541992
            ]
        }
    ],
    "materials": [
        {
            "doubleSided": true,
            "name": "Material.009",
            "pbrMetallicRoughness": {
                "baseColorFactor": [
                    0.800000011920929, 0.800000011920929, 0.800000011920929, 1
                ],
                "metallicFactor": 0,
                "roughnessFactor": 0.4000000059604645
            }
        },
        {
            "doubleSided": true,
            "extensions": {
                "KHR_materials_specular": {
                    "specularFactor": 0.8363636136054993
                }
            },
            "name": "lale sap\u0131.001",
            "pbrMetallicRoughness": {
                "metallicFactor": 0.26363635063171387,
                "roughnessFactor": 0.9545454978942871
            }
        },
        {
            "alphaMode": "BLEND",
            "doubleSided": true,
            "extensions": {
                "KHR_materials_specular": {
                    "specularFactor": 0.37272727489471436
                }
            },
            "name": "ta\u00e7 yaprak",
            "pbrMetallicRoughness": {
                "metallicFactor": 0.10454545170068741
            }
        },
        {
            "doubleSided": true,
            "extensions": {
                "KHR_materials_specular": {
                    "specularFactor": 0.6666666865348816
                }
            },
            "name": "1",
            "pbrMetallicRoughness": {
                "baseColorFactor": [
                    1, 0.5313966870307922, 0.00922093540430069, 1
                ],
                "metallicFactor": 0
            }
        },
        {
            "alphaMode": "BLEND",
            "doubleSided": true,
            "extensions": {
                "KHR_materials_specular": {
                    "specularFactor": 0.7727272510528564
                }
            },
            "name": "yaprak",
            "pbrMetallicRoughness": {
                "metallicFactor": 0.11363636702299118,
                "roughnessFactor": 0.7772727012634277
            }
        },
        {
            "doubleSided": true,
            "name": "lale sap\u0131",
            "pbrMetallicRoughness": {
                "metallicFactor": 0,
                "roughnessFactor": 0.5
            }
        },
        {
            "doubleSided": true,
            "extensions": {
                "KHR_materials_specular": {
                    "specularColorFactor": [2.0, 2.0, 2.0]
                }
            },
            "name": "Material.002",
            "pbrMetallicRoughness": {
                "baseColorFactor": [0, 0, 0, 1],
                "metallicFactor": 0.3142857253551483,
                "roughnessFactor": 0.4000000059604645
            }
        }
    ],
    "meshes": [
        {
            "name": "Cube.001",
            "primitives": [
                {
                    "attributes": {
                        "POSITION": 0,
                        "NORMAL": 1,
                        "TEXCOORD_0": 2
                    },
                    "indices": 3,
                    "material": 0
                }
            ]
        },
        {
            "name": "BezierCurve.005",
            "primitives": [
                {
                    "attributes": {
                        "POSITION": 4,
                        "NORMAL": 5,
                        "TEXCOORD_0": 6
                    },
                    "indices": 7,
                    "material": 1
                },
                {
                    "attributes": {
                        "POSITION": 8,
                        "NORMAL": 9,
                        "TEXCOORD_0": 10
                    },
                    "indices": 11,
                    "material": 2
                },
                {
                    "attributes": {
                        "POSITION": 12,
                        "NORMAL": 13,
                        "TEXCOORD_0": 14
                    },
                    "indices": 15,
                    "material": 3
                },
                {
                    "attributes": {
                        "POSITION": 16,
                        "NORMAL": 17,
                        "TEXCOORD_0": 18
                    },
                    "indices": 19,
                    "material": 4
                },
                {
                    "attributes": {
                        "POSITION": 20,
                        "NORMAL": 21,
                        "TEXCOORD_0": 22
                    },
                    "indices": 23,
                    "material": 5
                }
            ]
        },
        {
            "name": "Cube.002",
            "primitives": [
                {
                    "attributes": {
                        "POSITION": 24,
                        "NORMAL": 25,
                        "TEXCOORD_0": 26
                    },
                    "indices": 27,
                    "material": 6
                }
            ]
        }
    ],
    "accessors": [
        {
            "bufferView": 0,
            "componentType": 5126,
            "count": 256,
            "max": [1.6495957374572754, 1.0323456525802612, 1.6495957374572754],
            "min": [
                -1.6495957374572754, -1.0097827911376953, -1.6495957374572754
            ],
            "type": "VEC3"
        },
        {
            "bufferView": 1,
            "componentType": 5126,
            "count": 256,
            "type": "VEC3"
        },
        {
            "bufferView": 2,
            "componentType": 5126,
            "count": 256,
            "type": "VEC2"
        },
        {
            "bufferView": 3,
            "componentType": 5123,
            "count": 660,
            "type": "SCALAR"
        },
        {
            "bufferView": 4,
            "componentType": 5126,
            "count": 975,
            "max": [45.752044677734375, 35.38810729980469, 12.634126663208008],
            "min": [-6.97900390625, -39.77128982543945, -7.805934906005859],
            "type": "VEC3"
        },
        {
            "bufferView": 5,
            "componentType": 5126,
            "count": 975,
            "type": "VEC3"
        },
        {
            "bufferView": 6,
            "componentType": 5126,
            "count": 975,
            "type": "VEC2"
        },
        {
            "bufferView": 7,
            "componentType": 5123,
            "count": 5184,
            "type": "SCALAR"
        },
        {
            "bufferView": 8,
            "componentType": 5126,
            "count": 4896,
            "max": [66.27058410644531, 61.33403015136719, 40.7569465637207],
            "min": [-14.95334243774414, 1.5583839416503906, -56.50002670288086],
            "type": "VEC3"
        },
        {
            "bufferView": 9,
            "componentType": 5126,
            "count": 4896,
            "type": "VEC3"
        },
        {
            "bufferView": 10,
            "componentType": 5126,
            "count": 4896,
            "type": "VEC2"
        },
        {
            "bufferView": 11,
            "componentType": 5123,
            "count": 24576,
            "type": "SCALAR"
        },
        {
            "bufferView": 12,
            "componentType": 5126,
            "count": 63568,
            "max": [51.95445251464844, 43.951446533203125, 21.45092010498047],
            "min": [-2.4403648376464844, 8.353458404541016, -38.79711151123047],
            "type": "VEC3"
        },
        {
            "bufferView": 13,
            "componentType": 5126,
            "count": 63568,
            "type": "VEC3"
        },
        {
            "bufferView": 14,
            "componentType": 5126,
            "count": 63568,
            "type": "VEC2"
        },
        {
            "bufferView": 15,
            "componentType": 5123,
            "count": 381264,
            "type": "SCALAR"
        },
        {
            "bufferView": 16,
            "componentType": 5126,
            "count": 1431,
            "max": [60.64786148071289, 41.3671875, 29.733474731445312],
            "min": [
                -17.074554443359375, -42.689796447753906, -39.333248138427734
            ],
            "type": "VEC3"
        },
        {
            "bufferView": 17,
            "componentType": 5126,
            "count": 1431,
            "type": "VEC3"
        },
        {
            "bufferView": 18,
            "componentType": 5126,
            "count": 1431,
            "type": "VEC2"
        },
        {
            "bufferView": 19,
            "componentType": 5123,
            "count": 6912,
            "type": "SCALAR"
        },
        {
            "bufferView": 20,
            "componentType": 5126,
            "count": 1875,
            "max": [41.53684997558594, 25.58875274658203, 16.718549728393555],
            "min": [
                -11.937095642089844, -39.903533935546875, -31.758596420288086
            ],
            "type": "VEC3"
        },
        {
            "bufferView": 21,
            "componentType": 5126,
            "count": 1875,
            "type": "VEC3"
        },
        {
            "bufferView": 22,
            "componentType": 5126,
            "count": 1875,
            "type": "VEC2"
        },
        {
            "bufferView": 23,
            "componentType": 5123,
            "count": 10080,
            "type": "SCALAR"
        },
        {
            "bufferView": 24,
            "componentType": 5126,
            "count": 38,
            "max": [1, 1, 1],
            "min": [-1, -1, -1],
            "type": "VEC3"
        },
        {
            "bufferView": 25,
            "componentType": 5126,
            "count": 38,
            "type": "VEC3"
        },
        {
            "bufferView": 26,
            "componentType": 5126,
            "count": 38,
            "type": "VEC2"
        },
        {
            "bufferView": 27,
            "componentType": 5123,
            "count": 60,
            "type": "SCALAR"
        }
    ],
    "bufferViews": [
        {
            "buffer": 0,
            "byteLength": 3072,
            "byteOffset": 0,
            "target": 34962
        },
        {
            "buffer": 0,
            "byteLength": 3072,
            "byteOffset": 3072,
            "target": 34962
        },
        {
            "buffer": 0,
            "byteLength": 2048,
            "byteOffset": 6144,
            "target": 34962
        },
        {
            "buffer": 0,
            "byteLength": 1320,
            "byteOffset": 8192,
            "target": 34963
        },
        {
            "buffer": 0,
            "byteLength": 11700,
            "byteOffset": 9512,
            "target": 34962
        },
        {
            "buffer": 0,
            "byteLength": 11700,
            "byteOffset": 21212,
            "target": 34962
        },
        {
            "buffer": 0,
            "byteLength": 7800,
            "byteOffset": 32912,
            "target": 34962
        },
        {
            "buffer": 0,
            "byteLength": 10368,
            "byteOffset": 40712,
            "target": 34963
        },
        {
            "buffer": 0,
            "byteLength": 58752,
            "byteOffset": 51080,
            "target": 34962
        },
        {
            "buffer": 0,
            "byteLength": 58752,
            "byteOffset": 109832,
            "target": 34962
        },
        {
            "buffer": 0,
            "byteLength": 39168,
            "byteOffset": 168584,
            "target": 34962
        },
        {
            "buffer": 0,
            "byteLength": 49152,
            "byteOffset": 207752,
            "target": 34963
        },
        {
            "buffer": 0,
            "byteLength": 762816,
            "byteOffset": 256904,
            "target": 34962
        },
        {
            "buffer": 0,
            "byteLength": 762816,
            "byteOffset": 1019720,
            "target": 34962
        },
        {
            "buffer": 0,
            "byteLength": 508544,
            "byteOffset": 1782536,
            "target": 34962
        },
        {
            "buffer": 0,
            "byteLength": 762528,
            "byteOffset": 2291080,
            "target": 34963
        },
        {
            "buffer": 0,
            "byteLength": 17172,
            "byteOffset": 3053608,
            "target": 34962
        },
        {
            "buffer": 0,
            "byteLength": 17172,
            "byteOffset": 3070780,
            "target": 34962
        },
        {
            "buffer": 0,
            "byteLength": 11448,
            "byteOffset": 3087952,
            "target": 34962
        },
        {
            "buffer": 0,
            "byteLength": 13824,
            "byteOffset": 3099400,
            "target": 34963
        },
        {
            "buffer": 0,
            "byteLength": 22500,
            "byteOffset": 3113224,
            "target": 34962
        },
        {
            "buffer": 0,
            "byteLength": 22500,
            "byteOffset": 3135724,
            "target": 34962
        },
        {
            "buffer": 0,
            "byteLength": 15000,
            "byteOffset": 3158224,
            "target": 34962
        },
        {
            "buffer": 0,
            "byteLength": 20160,
            "byteOffset": 3173224,
            "target": 34963
        },
        {
            "buffer": 0,
            "byteLength": 456,
            "byteOffset": 3193384,
            "target": 34962
        },
        {
            "buffer": 0,
            "byteLength": 456,
            "byteOffset": 3193840,
            "target": 34962
        },
        {
            "buffer": 0,
            "byteLength": 304,
            "byteOffset": 3194296,
            "target": 34962
        },
        {
            "buffer": 0,
            "byteLength": 120,
            "byteOffset": 3194600,
            "target": 34963
        }
    ],
    "buffers": [
        {
            "byteLength": 3194720,
            "uri": "flower.bin"
        }
    ]
}
