{
	"asset":{
		"generator":"Khronos glTF Blender I/O v4.2.57",
		"version":"2.0"
	},
	"extensionsUsed":[
		"KHR_materials_specular"
	],
	"scene":0,
	"scenes":[
		{
			"name":"Scene",
			"nodes":[
				0,
				1,
				2,
				3,
				4
			]
		}
	],
	"nodes":[
		{
			"mesh":0,
			"name":"Mesh",
			"rotation":[
				0.7071068286895752,
				0,
				0,
				0.7071068286895752
			],
			"scale":[
				0.009999999776482582,
				0.009999999776482582,
				0.009999999776482582
			]
		},
		{
			"mesh":1,
			"name":"pCylinder1",
			"rotation":[
				0.7071068286895752,
				0,
				0,
				0.7071068286895752
			],
			"scale":[
				0.009999999776482582,
				0.009999999776482582,
				0.009999999776482582
			]
		},
		{
			"mesh":2,
			"name":"pCube1",
			"rotation":[
				0.7071068286895752,
				0,
				0,
				0.7071068286895752
			],
			"scale":[
				0.009999999776482582,
				0.009999999776482582,
				0.009999999776482582
			]
		},
		{
			"mesh":3,
			"name":"pCube2",
			"rotation":[
				0.7071068286895752,
				0,
				0,
				0.7071068286895752
			],
			"scale":[
				0.009999999776482582,
				0.009999999776482582,
				0.009999999776482582
			]
		},
		{
			"mesh":4,
			"name":"pCube3",
			"rotation":[
				0.7071068286895752,
				0,
				0,
				0.7071068286895752
			],
			"scale":[
				0.009999999776482582,
				0.009999999776482582,
				0.009999999776482582
			]
		}
	],
	"materials":[
		{
			"doubleSided":true,
			"extensions":{
				"KHR_materials_specular":{
					"specularColorFactor":[
						2.0,
						2.0,
						2.0
					]
				}
			},
			"name":"phongE1",
			"pbrMetallicRoughness":{
				"metallicFactor":0.5,
				"roughnessFactor":0.5527864098548889
			}
		},
		{
			"doubleSided":true,
			"extensions":{
				"KHR_materials_specular":{
					"specularColorFactor":[
						2.0,
						2.0,
						2.0
					]
				}
			},
			"name":"phong1",
			"pbrMetallicRoughness":{
				"metallicFactor":0.5,
				"roughnessFactor":0.5527864098548889
			}
		},
		{
			"alphaMode":"BLEND",
			"doubleSided":true,
			"extensions":{
				"KHR_materials_specular":{
					"specularColorFactor":[
						2.0,
						2.0,
						2.0
					]
				}
			},
			"name":"phong2",
			"pbrMetallicRoughness":{
				"metallicFactor":0.14935064315795898,
				"roughnessFactor":0.858578622341156
			}
		}
	],
	"meshes":[
		{
			"name":"Mesh",
			"primitives":[
				{
					"attributes":{
						"POSITION":0,
						"NORMAL":1,
						"TEXCOORD_0":2
					},
					"indices":3,
					"material":0
				}
			]
		},
		{
			"name":"Mesh.001",
			"primitives":[
				{
					"attributes":{
						"POSITION":4,
						"NORMAL":5,
						"TEXCOORD_0":6
					},
					"indices":7,
					"material":1
				}
			]
		},
		{
			"name":"Mesh.002",
			"primitives":[
				{
					"attributes":{
						"POSITION":8,
						"NORMAL":9,
						"TEXCOORD_0":10
					},
					"indices":11,
					"material":2
				}
			]
		},
		{
			"name":"Mesh.003",
			"primitives":[
				{
					"attributes":{
						"POSITION":12,
						"NORMAL":13,
						"TEXCOORD_0":14
					},
					"indices":15,
					"material":2
				}
			]
		},
		{
			"name":"Mesh.004",
			"primitives":[
				{
					"attributes":{
						"POSITION":16,
						"NORMAL":17,
						"TEXCOORD_0":18
					},
					"indices":15,
					"material":2
				}
			]
		}
	],
	"accessors":[
		{
			"bufferView":0,
			"componentType":5126,
			"count":93558,
			"max":[
				17.04810333251953,
				18.724620819091797,
				-65.88240814208984
			],
			"min":[
				-18.575944900512695,
				-15.158563613891602,
				-84.57872009277344
			],
			"type":"VEC3"
		},
		{
			"bufferView":1,
			"componentType":5126,
			"count":93558,
			"type":"VEC3"
		},
		{
			"bufferView":2,
			"componentType":5126,
			"count":93558,
			"type":"VEC2"
		},
		{
			"bufferView":3,
			"componentType":5125,
			"count":480084,
			"type":"SCALAR"
		},
		{
			"bufferView":4,
			"componentType":5126,
			"count":1526,
			"max":[
				0.5869144201278687,
				1.0211067199707031,
				1.5796951055526733
			],
			"min":[
				-1.9822700023651123,
				-1.0211067199707031,
				-66.06751251220703
			],
			"type":"VEC3"
		},
		{
			"bufferView":5,
			"componentType":5126,
			"count":1526,
			"type":"VEC3"
		},
		{
			"bufferView":6,
			"componentType":5126,
			"count":1526,
			"type":"VEC2"
		},
		{
			"bufferView":7,
			"componentType":5123,
			"count":7920,
			"type":"SCALAR"
		},
		{
			"bufferView":8,
			"componentType":5126,
			"count":1012,
			"max":[
				17.67107582092285,
				3.1196513175964355,
				-24.13338279724121
			],
			"min":[
				-0.44123339653015137,
				-1.3434226512908936,
				-36.21806716918945
			],
			"type":"VEC3"
		},
		{
			"bufferView":9,
			"componentType":5126,
			"count":1012,
			"type":"VEC3"
		},
		{
			"bufferView":10,
			"componentType":5126,
			"count":1012,
			"type":"VEC2"
		},
		{
			"bufferView":11,
			"componentType":5123,
			"count":4176,
			"type":"SCALAR"
		},
		{
			"bufferView":12,
			"componentType":5126,
			"count":979,
			"max":[
				-1.3813693523406982,
				4.045686721801758,
				-47.55044937133789
			],
			"min":[
				-11.584967613220215,
				-2.5581257343292236,
				-58.7213020324707
			],
			"type":"VEC3"
		},
		{
			"bufferView":13,
			"componentType":5126,
			"count":979,
			"type":"VEC3"
		},
		{
			"bufferView":14,
			"componentType":5126,
			"count":979,
			"type":"VEC2"
		},
		{
			"bufferView":15,
			"componentType":5123,
			"count":4176,
			"type":"SCALAR"
		},
		{
			"bufferView":16,
			"componentType":5126,
			"count":979,
			"max":[
				-0.9717198014259338,
				4.842859268188477,
				-39.8101692199707
			],
			"min":[
				-15.816280364990234,
				-3.7405736446380615,
				-42.773189544677734
			],
			"type":"VEC3"
		},
		{
			"bufferView":17,
			"componentType":5126,
			"count":979,
			"type":"VEC3"
		},
		{
			"bufferView":18,
			"componentType":5126,
			"count":979,
			"type":"VEC2"
		}
	],
	"bufferViews":[
		{
			"buffer":0,
			"byteLength":1122696,
			"byteOffset":0,
			"target":34962
		},
		{
			"buffer":0,
			"byteLength":1122696,
			"byteOffset":1122696,
			"target":34962
		},
		{
			"buffer":0,
			"byteLength":748464,
			"byteOffset":2245392,
			"target":34962
		},
		{
			"buffer":0,
			"byteLength":1920336,
			"byteOffset":2993856,
			"target":34963
		},
		{
			"buffer":0,
			"byteLength":18312,
			"byteOffset":4914192,
			"target":34962
		},
		{
			"buffer":0,
			"byteLength":18312,
			"byteOffset":4932504,
			"target":34962
		},
		{
			"buffer":0,
			"byteLength":12208,
			"byteOffset":4950816,
			"target":34962
		},
		{
			"buffer":0,
			"byteLength":15840,
			"byteOffset":4963024,
			"target":34963
		},
		{
			"buffer":0,
			"byteLength":12144,
			"byteOffset":4978864,
			"target":34962
		},
		{
			"buffer":0,
			"byteLength":12144,
			"byteOffset":4991008,
			"target":34962
		},
		{
			"buffer":0,
			"byteLength":8096,
			"byteOffset":5003152,
			"target":34962
		},
		{
			"buffer":0,
			"byteLength":8352,
			"byteOffset":5011248,
			"target":34963
		},
		{
			"buffer":0,
			"byteLength":11748,
			"byteOffset":5019600,
			"target":34962
		},
		{
			"buffer":0,
			"byteLength":11748,
			"byteOffset":5031348,
			"target":34962
		},
		{
			"buffer":0,
			"byteLength":7832,
			"byteOffset":5043096,
			"target":34962
		},
		{
			"buffer":0,
			"byteLength":8352,
			"byteOffset":5050928,
			"target":34963
		},
		{
			"buffer":0,
			"byteLength":11748,
			"byteOffset":5059280,
			"target":34962
		},
		{
			"buffer":0,
			"byteLength":11748,
			"byteOffset":5071028,
			"target":34962
		},
		{
			"buffer":0,
			"byteLength":7832,
			"byteOffset":5082776,
			"target":34962
		}
	],
	"buffers":[
		{
			"byteLength":5090608,
			"uri":"rose.bin"
		}
	]
}
